<svg width="43" height="32" viewBox="0 0 43 32" fill="none" xmlns="http://www.w3.org/2000/svg">
<path d="M36.0814 2.65449C33.3593 1.40521 30.4868 0.51358 27.5357 0.00182254C27.509 -0.00268029 27.4815 0.00120865 27.4571 0.0129548C27.4326 0.0247009 27.4124 0.0437273 27.3993 0.0674177C27.0293 0.72337 26.62 1.58136 26.334 2.25305C23.1529 1.77029 19.9172 1.77029 16.7361 2.25305C16.4171 1.50479 16.0562 0.775093 15.6551 0.0674177C15.6416 0.0439867 15.6214 0.0251796 15.597 0.0134712C15.5727 0.00176281 15.5454 -0.00229809 15.5186 0.00182254C12.5669 0.510841 9.69379 1.40294 6.9729 2.65449C6.94962 2.66338 6.93014 2.68007 6.9178 2.70172C1.47602 10.8329 -0.0169242 18.7647 0.715118 26.5967C0.717742 26.6335 0.741357 26.6702 0.770218 26.6938C3.93906 29.0411 7.48347 30.8333 11.2523 31.9939C11.2789 32.0023 11.3075 32.002 11.334 31.993C11.3604 31.9841 11.3833 31.9669 11.3993 31.9441C12.2074 30.8421 12.9263 29.6797 13.5455 28.457C13.5584 28.4318 13.5629 28.4032 13.5581 28.3753C13.5534 28.3474 13.5398 28.3217 13.5193 28.3022C13.5057 28.2894 13.4897 28.2796 13.4721 28.2734C12.3416 27.8389 11.2468 27.3169 10.1976 26.7122C10.1683 26.6956 10.1465 26.6683 10.1367 26.6361C10.1269 26.6039 10.1299 26.5691 10.1451 26.539C10.154 26.5195 10.1675 26.5024 10.1844 26.4892C10.4048 26.3239 10.6252 26.1507 10.8351 25.9775C10.8537 25.9626 10.8759 25.953 10.8995 25.9498C10.9231 25.9466 10.9471 25.9498 10.969 25.9592C17.8407 29.0972 25.2792 29.0972 32.067 25.9592C32.0897 25.9493 32.1146 25.9459 32.1391 25.9491C32.1636 25.9523 32.1867 25.9622 32.2061 25.9775C32.416 26.1507 32.6364 26.3239 32.8568 26.4892C32.8746 26.5022 32.889 26.5195 32.8985 26.5394C32.9081 26.5594 32.9125 26.5814 32.9115 26.6035C32.9105 26.6256 32.904 26.6471 32.8926 26.6661C32.8812 26.685 32.8653 26.7009 32.8463 26.7122C31.7994 27.3225 30.7032 27.8438 29.5691 28.2707C29.5511 28.2773 29.5346 28.2877 29.521 28.3013C29.5074 28.3149 29.497 28.3314 29.4904 28.3494C29.4844 28.367 29.4819 28.3856 29.4833 28.404C29.4846 28.4225 29.4897 28.4406 29.4983 28.457C30.128 29.6771 30.8496 30.8421 31.6419 31.9441C31.658 31.9669 31.6808 31.9841 31.7073 31.993C31.7337 32.002 31.7623 32.0023 31.7889 31.9939C35.564 30.8369 39.1142 29.0445 42.2867 26.6938C42.3026 26.6828 42.3158 26.6684 42.3254 26.6516C42.3349 26.6348 42.3405 26.616 42.3418 26.5967C43.2182 17.542 40.8751 9.67581 36.1339 2.70435C36.1291 2.69283 36.122 2.68244 36.113 2.67386C36.1039 2.66527 36.0932 2.65867 36.0814 2.65449ZM14.5715 21.8267C12.5013 21.8267 10.7984 19.927 10.7984 17.5971C10.7984 15.2645 12.4698 13.3649 14.5715 13.3649C16.6889 13.3649 18.376 15.2803 18.3445 17.5971C18.3445 19.927 16.6731 21.8267 14.5715 21.8267ZM28.5196 21.8267C26.4521 21.8267 24.7466 19.927 24.7466 17.5971C24.7466 15.2645 26.4179 13.3649 28.5196 13.3649C30.637 13.3649 32.3268 15.2803 32.2927 17.5971C32.2927 19.927 30.637 21.8267 28.5196 21.8267Z" fill="white"/>
</svg>
