<svg width="33" height="32" viewBox="0 0 33 32" fill="none" xmlns="http://www.w3.org/2000/svg">
<path d="M16.4583 0C12.1163 0 11.5703 0.02 9.86425 0.096C8.15825 0.176 6.99625 0.444 5.97825 0.84C4.91044 1.24164 3.94324 1.87165 3.14425 2.686C2.3304 3.48539 1.70047 4.45248 1.29825 5.52C0.902252 6.536 0.632252 7.7 0.554252 9.4C0.478252 11.11 0.458252 11.654 0.458252 16.002C0.458252 20.346 0.478252 20.89 0.554252 22.596C0.634252 24.3 0.902252 25.462 1.29825 26.48C1.70825 27.532 2.25425 28.424 3.14425 29.314C4.03225 30.204 4.92425 30.752 5.97625 31.16C6.99625 31.556 8.15625 31.826 9.86025 31.904C11.5683 31.98 12.1123 32 16.4583 32C20.8043 32 21.3463 31.98 23.0543 31.904C24.7563 31.824 25.9223 31.556 26.9403 31.16C28.0074 30.7582 28.9739 30.1282 29.7723 29.314C30.6623 28.424 31.2083 27.532 31.6183 26.48C32.0123 25.462 32.2823 24.3 32.3623 22.596C32.4383 20.89 32.4583 20.346 32.4583 16C32.4583 11.654 32.4383 11.11 32.3623 9.402C32.2823 7.7 32.0123 6.536 31.6183 5.52C31.2161 4.45245 30.5861 3.48535 29.7723 2.686C28.9735 1.87135 28.0062 1.24129 26.9383 0.84C25.9183 0.444 24.7543 0.174 23.0523 0.096C21.3443 0.02 20.8023 0 16.4543 0H16.4603H16.4583ZM15.0243 2.884H16.4603C20.7323 2.884 21.2383 2.898 22.9243 2.976C24.4843 3.046 25.3323 3.308 25.8963 3.526C26.6423 3.816 27.1763 4.164 27.7363 4.724C28.2963 5.284 28.6423 5.816 28.9323 6.564C29.1523 7.126 29.4123 7.974 29.4823 9.534C29.5603 11.22 29.5763 11.726 29.5763 15.996C29.5763 20.266 29.5603 20.774 29.4823 22.46C29.4123 24.02 29.1503 24.866 28.9323 25.43C28.6757 26.1247 28.2663 26.7529 27.7343 27.268C27.1743 27.828 26.6423 28.174 25.8943 28.464C25.3343 28.684 24.4863 28.944 22.9243 29.016C21.2383 29.092 20.7323 29.11 16.4603 29.11C12.1883 29.11 11.6803 29.092 9.99425 29.016C8.43425 28.944 7.58825 28.684 7.02425 28.464C6.32925 28.2078 5.7005 27.7992 5.18425 27.268C4.65175 26.7521 4.2417 26.1233 3.98425 25.428C3.76625 24.866 3.50425 24.018 3.43425 22.458C3.35825 20.772 3.34225 20.266 3.34225 15.992C3.34225 11.72 3.35825 11.216 3.43425 9.53C3.50625 7.97 3.76625 7.122 3.98625 6.558C4.27625 5.812 4.62425 5.278 5.18425 4.718C5.74425 4.158 6.27625 3.812 7.02425 3.522C7.58825 3.302 8.43425 3.042 9.99425 2.97C11.4703 2.902 12.0423 2.882 15.0243 2.88V2.884ZM25.0003 5.54C24.7481 5.54 24.4984 5.58966 24.2655 5.68615C24.0326 5.78264 23.8209 5.92407 23.6426 6.10236C23.4643 6.28064 23.3229 6.4923 23.2264 6.72525C23.1299 6.95819 23.0803 7.20786 23.0803 7.46C23.0803 7.71214 23.1299 7.96181 23.2264 8.19475C23.3229 8.4277 23.4643 8.63936 23.6426 8.81765C23.8209 8.99593 24.0326 9.13736 24.2655 9.23385C24.4984 9.33034 24.7481 9.38 25.0003 9.38C25.5095 9.38 25.9978 9.17771 26.3579 8.81765C26.718 8.45758 26.9203 7.96922 26.9203 7.46C26.9203 6.95078 26.718 6.46242 26.3579 6.10236C25.9978 5.74229 25.5095 5.54 25.0003 5.54ZM16.4603 7.784C15.3704 7.767 14.288 7.96697 13.2762 8.37228C12.2644 8.77759 11.3433 9.38014 10.5666 10.1448C9.78982 10.9096 9.17298 11.8211 8.75193 12.8265C8.33089 13.8319 8.11405 14.911 8.11405 16.001C8.11405 17.091 8.33089 18.1701 8.75193 19.1755C9.17298 20.1809 9.78982 21.0924 10.5666 21.8572C11.3433 22.6219 12.2644 23.2244 13.2762 23.6297C14.288 24.035 15.3704 24.235 16.4603 24.218C18.6173 24.1843 20.6747 23.3038 22.1882 21.7665C23.7017 20.2292 24.5501 18.1583 24.5501 16.001C24.5501 13.8437 23.7017 11.7728 22.1882 10.2355C20.6747 8.69817 18.6173 7.81765 16.4603 7.784ZM16.4603 10.666C17.8749 10.666 19.2316 11.228 20.232 12.2283C21.2323 13.2286 21.7943 14.5853 21.7943 16C21.7943 17.4147 21.2323 18.7714 20.232 19.7717C19.2316 20.772 17.8749 21.334 16.4603 21.334C15.0456 21.334 13.6889 20.772 12.6885 19.7717C11.6882 18.7714 11.1263 17.4147 11.1263 16C11.1263 14.5853 11.6882 13.2286 12.6885 12.2283C13.6889 11.228 15.0456 10.666 16.4603 10.666Z" fill="white"/>
</svg>
