<svg width="33" height="32" viewBox="0 0 33 32" fill="none" xmlns="http://www.w3.org/2000/svg">
<path d="M0.522949 2.292C0.522949 1.026 1.57495 0 2.87295 0H30.1729C31.4709 0 32.5229 1.026 32.5229 2.292V29.708C32.5229 30.974 31.4709 32 30.1729 32H2.87295C1.57495 32 0.522949 30.974 0.522949 29.708V2.292ZM10.4089 26.788V12.338H5.60695V26.788H10.4089ZM8.00895 10.364C9.68295 10.364 10.7249 9.256 10.7249 7.868C10.6949 6.45 9.68495 5.372 8.04095 5.372C6.39695 5.372 5.32295 6.452 5.32295 7.868C5.32295 9.256 6.36495 10.364 7.97695 10.364H8.00895ZM17.8249 26.788V18.718C17.8249 18.286 17.8569 17.854 17.9849 17.546C18.3309 16.684 19.1209 15.79 20.4489 15.79C22.1869 15.79 22.8809 17.114 22.8809 19.058V26.788H27.6829V18.5C27.6829 14.06 25.3149 11.996 22.1549 11.996C19.6069 11.996 18.4649 13.396 17.8249 14.382V14.432H17.7929C17.8036 14.4153 17.8142 14.3986 17.8249 14.382V12.338H13.0249C13.0849 13.694 13.0249 26.788 13.0249 26.788H17.8249Z" fill="white"/>
</svg>
