<svg width="474" height="81" viewBox="0 0 474 81" fill="none" xmlns="http://www.w3.org/2000/svg">
<g clip-path="url(#clip0_675_451)">
<mask id="mask0_675_451" style="mask-type:luminance" maskUnits="userSpaceOnUse" x="421" y="-1" width="54" height="83">
<path d="M421.577 -0.0579834H474.028V81.427H421.577V-0.0579834Z" fill="white"/>
</mask>
<g mask="url(#mask0_675_451)">
<path fill-rule="evenodd" clip-rule="evenodd" d="M432.79 55.3339V-0.055542H421.577V81.427H453.048C464.636 81.427 474.028 72.1609 474.028 60.7324C474.028 49.3038 464.636 40.0377 453.048 40.0377C443.356 40.0377 435.196 46.5225 432.79 55.3339ZM441.246 58.1455V66.2294H443.1V61.3235L447.14 66.2294H448.68V58.1455H446.826V63.0489L442.799 58.1455H441.246ZM452.472 63.2838V66.2294H450.597V58.1455H456.721V59.6461H452.472V61.7832H456.223V63.2838H452.472ZM459.726 66.2294V59.6688H457.131V58.1455H464.193V59.6688H461.601V66.2294H459.726ZM473.767 36.0287V-0.055542H462.554V19.5376C462.554 21.9527 461.922 23.8271 460.654 25.1635C459.385 26.4998 457.66 27.1693 455.474 27.1693C453.332 27.1693 451.627 26.4998 450.36 25.1635C449.092 23.8271 448.457 21.9527 448.457 19.5376V-0.055542H437.313V21.0256C437.313 24.1732 437.902 26.9091 439.083 29.2382C440.262 31.5674 441.924 33.3559 444.066 34.6064C446.209 35.8139 448.678 36.4177 451.475 36.4177C453.835 36.4177 455.978 35.9428 457.9 34.9929C459.868 34.0027 461.418 32.7092 462.554 31.1127V36.0287H473.767Z" fill="white"/>
</g>
<mask id="mask1_675_451" style="mask-type:luminance" maskUnits="userSpaceOnUse" x="0" y="23" width="59" height="59">
<path d="M0 23.2815H58.2787V81.427H0V23.2815Z" fill="white"/>
</mask>
<g mask="url(#mask1_675_451)">
<path d="M58.1775 51.6127C58.1775 53.2244 58.0738 54.9043 57.8664 56.6499H17.6607C17.9389 60.1411 19.0822 62.8265 21.0906 64.7085C23.1673 66.5198 25.6968 67.4267 28.6739 67.4267C33.1055 67.4267 36.1889 65.6129 37.9191 61.9878H56.8268C55.858 65.6811 54.0924 69.0055 51.5301 71.9587C49.0361 74.9143 45.8843 77.2308 42.075 78.9082C38.2656 80.5882 34.006 81.4269 29.2962 81.4269C23.6175 81.4269 18.5612 80.2522 14.1295 77.9028C9.69541 75.5509 6.23258 72.1936 3.74107 67.8309C1.24702 63.4656 0 58.3627 0 52.5196C0 46.6765 1.21161 41.5736 3.63736 37.2108C6.12887 32.8456 9.5917 29.4882 14.0258 27.1364C18.4574 24.787 23.5492 23.6123 29.2962 23.6123C34.9065 23.6123 39.8946 24.7541 44.2579 27.0378C48.6212 29.319 52.0132 32.5778 54.439 36.8066C56.933 41.038 58.1775 45.9717 58.1775 51.6127ZM39.9983 47.0807C39.9983 44.125 38.9587 41.7757 36.882 40.0301C34.8028 38.2845 32.205 37.4104 29.0888 37.4104C26.1116 37.4104 23.5821 38.2516 21.5054 39.929C19.4971 41.6089 18.25 43.9911 17.7644 47.0807H39.9983Z" fill="#41EEEA"/>
</g>
<path d="M102.873 23.8146C109.662 23.8146 115.063 25.9618 119.079 30.2589C123.167 34.4903 125.208 40.3334 125.208 47.7857V80.6212H107.548V50.1022C107.548 46.3432 106.543 43.4204 104.535 41.3388C102.527 39.2572 99.8251 38.2164 96.4331 38.2164C93.0386 38.2164 90.3371 39.2572 88.3287 41.3388C86.3203 43.4204 85.3161 46.3432 85.3161 50.1022V80.6212H67.5518V24.4183H85.3161V31.8706C87.1171 29.3874 89.5403 27.4397 92.5883 26.0301C95.6363 24.5522 99.0637 23.8146 102.873 23.8146Z" fill="#41EEEA"/>
<mask id="mask2_675_451" style="mask-type:luminance" maskUnits="userSpaceOnUse" x="133" y="23" width="60" height="59">
<path d="M133.394 23.2815H192.32V81.427H133.394V23.2815Z" fill="white"/>
</mask>
<g mask="url(#mask2_675_451)">
<path d="M192.201 51.6127C192.201 53.2244 192.097 54.9043 191.89 56.6499H151.684C151.96 60.1411 153.103 62.8265 155.112 64.7085C157.191 66.5198 159.718 67.4267 162.697 67.4267C167.129 67.4267 170.212 65.6129 171.943 61.9878H190.85C189.881 65.6811 188.116 69.0055 185.551 71.9587C183.059 74.9143 179.908 77.2308 176.098 78.9082C172.289 80.5882 168.029 81.4269 163.32 81.4269C157.641 81.4269 152.585 80.2522 148.15 77.9028C143.719 75.5509 140.256 72.1936 137.762 67.8309C135.27 63.4656 134.023 58.3627 134.023 52.5196C134.023 46.6765 135.235 41.5736 137.658 37.2108C140.152 32.8456 143.615 29.4882 148.049 27.1364C152.481 24.787 157.57 23.6123 163.32 23.6123C168.93 23.6123 173.916 24.7541 178.279 27.0378C182.642 29.319 186.037 32.5778 188.46 36.8066C190.954 41.038 192.201 45.9717 192.201 51.6127ZM174.019 47.0807C174.019 44.125 172.982 41.7757 170.903 40.0301C168.826 38.2845 166.228 37.4104 163.112 37.4104C160.135 37.4104 157.606 38.2516 155.529 39.929C153.518 41.6089 152.271 43.9911 151.788 47.0807H174.019Z" fill="#41EEEA"/>
</g>
<path d="M230.661 38.7217H221.105V80.6212H203.34V38.7217H196.898V24.4184H203.34V22.8066C203.34 15.8899 205.382 10.6531 209.469 7.09369C213.554 3.46859 219.547 1.65479 227.441 1.65479C228.756 1.65479 229.728 1.68763 230.35 1.75583V16.3598C226.958 16.1577 224.568 16.6301 223.182 17.7694C221.795 18.9112 221.105 20.96 221.105 23.9156V24.4184H230.661V38.7217Z" fill="#41EEEA"/>
<path d="M276.073 66.0172V80.6212H267.035C260.592 80.6212 255.571 79.1105 251.969 76.0892C248.37 72.9996 246.569 67.9978 246.569 61.081V38.7217H239.504V24.4183H246.569V10.7188H264.333V24.4183H271.98V38.7217H264.333V61.2831C264.333 62.9605 264.748 64.1706 265.58 64.9082C266.41 65.6484 267.796 66.0172 269.736 66.0172H276.073Z" fill="#41EEEA"/>
<mask id="mask3_675_451" style="mask-type:luminance" maskUnits="userSpaceOnUse" x="282" y="-1" width="22" height="82">
<path d="M282.328 -0.0579834H303.697V80.8384H282.328V-0.0579834Z" fill="white"/>
</mask>
<g mask="url(#mask3_675_451)">
<path d="M293.06 18.5753C289.942 18.5753 287.379 17.7037 285.371 15.9581C283.431 14.1443 282.462 11.9288 282.462 9.30916C282.462 6.62381 283.431 4.40833 285.371 2.66273C287.379 0.848921 289.942 -0.0579834 293.06 -0.0579834C296.106 -0.0579834 298.6 0.848921 300.54 2.66273C302.548 4.40833 303.55 6.62381 303.55 9.30916C303.55 11.9288 302.548 14.1443 300.54 15.9581C298.6 17.7037 296.106 18.5753 293.06 18.5753ZM301.888 24.4183V80.6212H284.124V24.4183H301.888Z" fill="#41EEEA"/>
</g>
<mask id="mask4_675_451" style="mask-type:luminance" maskUnits="userSpaceOnUse" x="311" y="23" width="99" height="58">
<path d="M311.467 23.2815H409.408V80.8384H311.467V23.2815Z" fill="white"/>
</mask>
<g mask="url(#mask4_675_451)">
<path d="M385.826 23.8146C393.027 23.8146 398.741 25.929 402.968 30.1604C407.26 34.3892 409.408 40.2652 409.408 47.7857V80.6212H391.747V50.1022C391.747 46.4771 390.743 43.6907 388.735 41.743C386.794 39.7271 384.093 38.7217 380.63 38.7217C377.167 38.7217 374.43 39.7271 372.422 41.743C370.485 43.6907 369.513 46.4771 369.513 50.1022V80.6212H351.853V50.1022C351.853 46.4771 350.848 43.6907 348.84 41.743C346.9 39.7271 344.198 38.7217 340.736 38.7217C337.273 38.7217 334.538 39.7271 332.53 41.743C330.59 43.6907 329.621 46.4771 329.621 50.1022V80.6212H311.854V24.4183H329.621V31.469C331.42 29.1196 333.777 27.2729 336.683 25.929C339.592 24.5194 342.883 23.8146 346.553 23.8146C350.917 23.8146 354.797 24.7215 358.189 26.5328C361.652 28.3466 364.356 30.9309 366.293 34.2882C368.302 31.2012 371.038 28.6826 374.501 26.7349C377.964 24.7872 381.738 23.8146 385.826 23.8146Z" fill="#41EEEA"/>
</g>
</g>
<defs>
<clipPath id="clip0_675_451">
<rect width="474" height="81" fill="white"/>
</clipPath>
</defs>
</svg>
