<svg width="40" height="32" viewBox="0 0 40 32" fill="none" xmlns="http://www.w3.org/2000/svg">
<path d="M12.894 32C27.756 32 35.886 19.6856 35.886 9.02522C35.886 8.68063 35.886 8.33111 35.8712 7.98651C37.454 6.84069 38.8201 5.4221 39.9055 3.7972C38.4269 4.4491 36.8601 4.87875 35.2559 5.0722C36.9457 4.06214 38.2113 2.47288 38.8175 0.599828C37.2299 1.54039 35.4922 2.20066 33.6806 2.55172C32.4626 1.25462 30.8509 0.395329 29.0952 0.10695C27.3394 -0.181429 25.5375 0.117199 23.9687 0.956578C22.3998 1.79596 21.1515 3.12924 20.4171 4.74991C19.6828 6.37058 19.5033 8.18818 19.9065 9.92118C16.6938 9.76008 13.5507 8.92546 10.6813 7.47144C7.81184 6.01743 5.28007 3.97649 3.25019 1.48101C2.2197 3.26081 1.90521 5.3661 2.37059 7.36935C2.83598 9.37261 4.04634 11.1236 5.7559 12.2669C4.47484 12.2234 3.22193 11.8794 2.09825 11.2626V11.3734C2.10046 13.2379 2.74636 15.0444 3.92676 16.4876C5.10717 17.9308 6.74969 18.9222 8.57667 19.2942C7.8832 19.4853 7.16685 19.5805 6.44756 19.5773C5.94047 19.5788 5.43439 19.5318 4.93625 19.437C5.45262 21.042 6.45807 22.4452 7.81178 23.4502C9.16549 24.4553 10.7997 25.0117 12.4854 25.0416C9.62168 27.2908 6.08426 28.5107 2.44285 28.5048C1.80121 28.5075 1.16002 28.4705 0.522949 28.394C4.21879 30.7503 8.51095 32.0014 12.894 32Z" fill="white"/>
</svg>
