<svg width="47" height="32" viewBox="0 0 47 32" fill="none" xmlns="http://www.w3.org/2000/svg">
<path d="M23.8283 0H24.0817C26.4221 0.00854168 38.2808 0.093959 41.4783 0.953822C42.4449 1.21625 43.3257 1.72776 44.0327 2.43725C44.7397 3.14674 45.2481 4.02935 45.5071 4.99689C45.7947 6.07883 45.9968 7.51099 46.1335 8.9887L46.162 9.28481L46.2246 10.0251L46.2474 10.3212C46.4325 12.9236 46.4552 15.3608 46.4581 15.8932V16.1068C46.4552 16.6591 46.4296 19.2615 46.2246 21.9721L46.2018 22.271L46.1762 22.5671C46.0338 24.1957 45.8231 25.813 45.5071 27.0031C45.2489 27.971 44.7407 28.8541 44.0336 29.5637C43.3265 30.2733 42.4453 30.7845 41.4783 31.0462C38.1755 31.9345 25.6221 31.9972 23.8824 32H23.4781C22.5983 32 18.9595 31.9829 15.1443 31.8519L14.6602 31.8349L14.4125 31.8235L13.9256 31.8035L13.4388 31.7836C10.2783 31.6441 7.26883 31.4192 5.88223 31.0433C4.91557 30.7819 4.03456 30.2711 3.32748 29.562C2.6204 28.853 2.11206 27.9705 1.8534 27.0031C1.53736 25.8158 1.32666 24.1957 1.1843 22.5671L1.16152 22.2682L1.13875 21.9721C0.998229 20.0428 0.920363 18.1094 0.905273 16.1751L0.905273 15.8249C0.910968 15.2127 0.933746 13.0972 1.0875 10.7625L1.10743 10.4693L1.11597 10.3212L1.13875 10.0251L1.20139 9.28481L1.22986 8.9887C1.36652 7.51099 1.56868 6.07599 1.85625 4.99689C2.11447 4.02896 2.62261 3.14593 3.32973 2.43632C4.03684 1.72671 4.91807 1.21546 5.88508 0.953822C7.27168 0.583682 10.2812 0.355903 13.4416 0.213542L13.9256 0.193611L14.4154 0.176529L14.6602 0.167987L15.1471 0.148056C17.8568 0.0608587 20.5677 0.0124505 23.2788 0.00284736H23.8283V0ZM19.1275 9.1396V22.8576L30.9635 16.0014L19.1275 9.1396Z" fill="white"/>
</svg>
